<?xml version="1.0" encoding="UTF-8" standalone="no"?>
<svg
   xmlns:dc="http://purl.org/dc/elements/1.1/"
   xmlns:cc="http://creativecommons.org/ns#"
   xmlns:rdf="http://www.w3.org/1999/02/22-rdf-syntax-ns#"
   xmlns:svg="http://www.w3.org/2000/svg"
   xmlns="http://www.w3.org/2000/svg"
   xmlns:xlink="http://www.w3.org/1999/xlink"
   xmlns:sodipodi="http://sodipodi.sourceforge.net/DTD/sodipodi-0.dtd"
   xmlns:inkscape="http://www.inkscape.org/namespaces/inkscape"
   viewBox="0 0 150 150"
   version="1.1"
   id="svg54"
   sodipodi:docname="banana-25339.svg"
   inkscape:version="0.92.4 (unknown)"
   inkscape:export-filename="/home/aqeel/Downloads/banana2.png"
   inkscape:export-xdpi="300"
   inkscape:export-ydpi="300">
  <metadata
     id="metadata58">
    <rdf:RDF>
      <cc:Work
         rdf:about="">
        <dc:format>image/svg+xml</dc:format>
        <dc:type
           rdf:resource="http://purl.org/dc/dcmitype/StillImage" />
      </cc:Work>
    </rdf:RDF>
  </metadata>
  <sodipodi:namedview
     pagecolor="#ffffff"
     bordercolor="#666666"
     borderopacity="1"
     objecttolerance="10"
     gridtolerance="10"
     guidetolerance="10"
     inkscape:pageopacity="0"
     inkscape:pageshadow="2"
     inkscape:window-width="1920"
     inkscape:window-height="1051"
     id="namedview56"
     showgrid="false"
     inkscape:zoom="4.4500587"
     inkscape:cx="64.306649"
     inkscape:cy="68.898397"
     inkscape:window-x="1680"
     inkscape:window-y="0"
     inkscape:window-maximized="1"
     inkscape:current-layer="svg54" />
  <defs
     id="defs12">
    <linearGradient
       id="b"
       x1="109.53"
       x2="370.9"
       gradientTransform="matrix(.356 -.043946 .029472 .23875 -12.355 9.0609)"
       gradientUnits="userSpaceOnUse">
      <stop
         stop-color="#fff"
         stop-opacity="0"
         offset="0"
         id="stop2" />
      <stop
         stop-color="#5f0e00"
         stop-opacity=".41667"
         offset="1"
         id="stop4" />
    </linearGradient>
    <linearGradient
       id="a"
       x1="62.831"
       x2="312.91"
       y1="339.77"
       y2="191.32"
       gradientTransform="matrix(.44692 -.055169 .023476 .19018 -12.355 9.0609)"
       gradientUnits="userSpaceOnUse">
      <stop
         stop-color="#fff"
         stop-opacity=".525"
         offset="0"
         id="stop7" />
      <stop
         stop-color="#fff"
         stop-opacity="0"
         offset="1"
         id="stop9" />
    </linearGradient>
    <linearGradient
       inkscape:collect="always"
       xlink:href="#a"
       id="linearGradient1150"
       gradientUnits="userSpaceOnUse"
       gradientTransform="matrix(0.44692,-0.055169,0.023476,0.19018,-12.355,9.0609)"
       x1="62.831"
       y1="339.77"
       x2="312.91"
       y2="191.32" />
  </defs>
  <path
     d="m104.35 22.402c-6.0961-4.4271 8.0308-9.8707 10.078-8.2735 3.0953 1.0978-2.236 2.8658-1.5567 5.3718s1.9794 16.034 4.9847 16.403 6.9644 2.47 7.4143 6.1142c11.9 21.469-16.166 87.829-104.54 67.29-1.5926-0.91332-10.735-9.0341-12.462-11.041-1.0437-2.461-2.9018-8.5212 1.2014-11.248 36.321-14.473 82.071-0.51184 96.306-47.036 2.3351-8.0577-1.4305-17.582-1.4305-17.582z"
     fill="#ffe200"
     fill-rule="evenodd"
     id="path14" />
  <path
     d="m 10.836,92.032 0.27899,-3.7342 c 25.707,-13.533 78.287,1.8051 96.626,-47.445 -7.9772,34.282 -26.639,56.935 -96.905,51.179 z"
     id="path16"
     style="fill:url(#linearGradient1150);fill-rule:evenodd"
     inkscape:connector-curvature="0" />
  <path
     d="m8.1063 96.85c-0.93301-5.3219-1.423-7.0546 1.452-9.2026 1.5952 1.8528 2.1142 8.1359-1.452 9.2026z"
     fill="#442400"
     fill-rule="evenodd"
     id="path18" />
  <path
     d="m39.818 111.02c65.753 8.162 82.426-34.777 85.099-44.912 5.12-12.471-0.50807-25.095-0.50807-25.095 4.494 39.402-32.772 76.19-84.591 70.008z"
     fill="url(#b)"
     fill-rule="evenodd"
     id="path20" />
  <g
     transform="matrix(.98655 -.16348 .16348 .98655 1.1189 19.351)"
     fill-rule="evenodd"
     id="g30">
    <path
       d="m104.35 22.402c-6.0961-4.4271 8.0308-9.8707 10.078-8.2735 3.0953 1.0978-2.236 2.8658-1.5567 5.3718s1.9794 16.034 4.9847 16.403 6.9644 2.47 7.4143 6.1142c11.9 21.469-16.166 87.829-104.54 67.29-1.5926-0.91332-10.735-9.0341-12.462-11.041-1.0437-2.461-2.9018-8.5212 1.2014-11.248 36.321-14.473 82.071-0.51184 96.306-47.036 2.3351-8.0577-1.4305-17.582-1.4305-17.582z"
       fill="#ffe200"
       id="path22" />
    <path
       d="m10.836 92.032 0.27899-3.7342c25.707-13.533 78.287 1.8051 96.626-47.445-7.9772 34.282-26.639 56.935-96.905 51.179z"
       fill="url(#a)"
       id="path24" />
    <path
       d="m8.1063 96.85c-0.93301-5.3219-1.423-7.0546 1.452-9.2026 1.5952 1.8528 2.1142 8.1359-1.452 9.2026z"
       fill="#442400"
       id="path26" />
    <path
       d="m39.818 111.02c65.753 8.162 82.426-34.777 85.099-44.912 5.12-12.471-0.50807-25.095-0.50807-25.095 4.494 39.402-32.772 76.19-84.591 70.008z"
       fill="url(#b)"
       id="path28" />
  </g>
  <g
     transform="matrix(.9515 -.30765 .30765 .9515 6.3233 37.294)"
     fill-rule="evenodd"
     id="g40">
    <path
       d="m104.35 22.402c-6.0961-4.4271 5.8582-10.018 7.9052-8.4209 3.0953 1.0978-2.1472 3.4496-1.4679 5.9556s4.0633 15.598 7.0686 15.967 6.9644 2.47 7.4143 6.1142c11.9 21.469-16.166 87.829-104.54 67.29-1.5926-0.91332-10.735-9.0341-12.462-11.041-1.0437-2.461-2.9018-8.5212 1.2014-11.248 36.321-14.473 82.071-0.51184 96.306-47.036 2.3351-8.0577-1.4305-17.582-1.4305-17.582z"
       fill="#ffe200"
       id="path32" />
    <path
       d="m10.836 92.032 0.27899-3.7342c25.707-13.533 78.287 1.8051 96.626-47.445-7.9772 34.282-26.639 56.935-96.905 51.179z"
       fill="url(#a)"
       id="path34" />
    <path
       d="m8.1063 96.85c-0.93301-5.3219-1.423-7.0546 1.452-9.2026 1.5952 1.8528 2.1142 8.1359-1.452 9.2026z"
       fill="#442400"
       id="path36" />
    <path
       d="m39.818 111.02c65.753 8.162 82.426-34.777 85.099-44.912 5.12-12.471-0.50807-25.095-0.50807-25.095 4.494 39.402-32.772 76.19-84.591 70.008z"
       fill="url(#b)"
       id="path38" />
  </g>
  <path
     d="m103.6 18.559c-1.405-5.0486 13.7-7.1009 13.96-1.3755-2.1597 1.8367-6.4844 6.046-13.96 1.3755z"
     fill="#442400"
     fill-rule="evenodd"
     id="path42" />
  <path
     d="m112.44 11c-4.2006 0.31406-8.7058 2.0883-11.213 5.6002-1.793 3.4241 2.492 5.9216 2.3174 9.4452 1.2704 5.216 1.0788 10.796-1.0956 15.749-3.5675 10.206-10.493 19.454-20.147 24.584-12.823 6.9225-27.623 8.206-41.786 10.324-11.042 1.6046-22.211 3.4219-32.576 7.7044-4.106 2.7411-3.6424 8.4731-1.9409 12.488 1.8734 3.2189 5.2856 5.2886 7.8945 7.912 2.128 2.3692 5.3917 4.1408 7.6166 5.5689 0.74406 3.8868 4.1234 5.921 7.2279 7.8096 3.2515 1.9527 6.3657 4.2763 9.8894 5.6899 2.99 0.28757 3.4054 5.3122 7.0871 5.6826 4.3908 1.9452 8.7353 4.2294 13.382 5.4424 21.763-1.8304 43.902-7.8668 61.269-21.603 15.031-11.743 25.586-29.645 26.718-48.865 0.50139-9.5004-0.96067-19.949-7.5164-27.297-2.0318-3.3209-5.7193-5.5358-9.7054-5.037-3.5106 0.4864-4.7212-5.1437-6.6286-7.5704-1.0846-2.8701-6.6477-3.1309-3.947-6.112 0.84116-3.9687-1.6148-5.2235-3.4398-6.7665-1.2315 0.11259-2.1067-0.84486-3.4062-0.75zm0.375 2.9062c1.7587 0.79486 5.3464 2.0761 3.4974 4.9271-1.3225 3.3403 5.1965 7.6311 6.176 10.592 2.1225 3.3141 1.7468 4.7198 5.9235 5.8673 3.3669-0.76352 7.105 0.3627 8.7467 3.5401 5.8209 6.4398 7.234 15.589 7.0628 23.979-0.63203 19.466-11.467 37.69-26.887 49.231-16.691 12.667-37.632 18.216-58.238 19.988-4.9151-1.7581-9.6923-3.9163-14.344-6.2812-1.83-2.1208-2.452-5.7199-5.9739-4.9522-4.5041-2.4705-8.8511-5.2434-13.026-8.2353-1.6204-2.5106-1.5509-6.426-5.4164-6.2176-4.0494-3.1901-7.9099-6.6345-11.521-10.314-1.3384-3.045-2.2822-8.4521 1.9406-9.5759 20.007-7.5142 41.932-6.5452 62.216-12.952 10.945-3.4112 21.053-10.244 27.086-20.143 3.272-5.4385 6.0462-11.37 7.0792-17.67 0.55777-5.2608-0.32021-10.683-2.3375-15.554-3.2845-2.1427 1.9041-4.6257 3.8492-5.2754 1.2775-0.48803 3.0648-0.97155 4.1663-0.95438z"
     fill-rule="evenodd"
     id="path44"
     style="stroke:#000000;stroke-opacity:1;stroke-width:2;stroke-miterlimit:4;stroke-dasharray:none" />
  <path
     d="m113.06 46.184c-0.84792 10.762-6.2793 18.346-13.466 24.784s-16.669 11.178-26.594 15.062-20.292 6.9243-29.25 10-17.817 4.321-22.164 10.312l3.8565-0.0735c3.3118-4.968 9.9903-5.709 18.915-8.7733s19.565-6.358 29.545-10.264 19.017-8.9466 26.347-15.514 12.413-14.975 13.281-26l-0.47183 0.46567z"
     id="path46"
     fill-rule="evenodd"
     style="stroke:#000000;stroke-opacity:1;stroke-width:1.8;stroke-miterlimit:4;stroke-dasharray:none" />
  <path
     d="m121.15 49.464c-1.5794-0.37141 0.01438-1.5639-0.11031-0.60055 0.21864 8.2587-3.4891 15.113-8.4965 21.638-6.8374 9.0067-15.627 16.196-25.314 21.777-11.384 6.5574-23.513 11.711-34.848 18.355-4.0125 2.4533-9.3666 6.1686-12.323 9.8907 0.98676 1.4108 3.4234-0.96804 4.2938-1.5132 5.3828-5.1571 11.613-9.3188 18.143-12.77 14.047-7.2186 28.408-12.673 40.552-23.933 7.6356-6.1379 13.329-12.954 16.027-22.548 1.2005-4.1906 2.3904-5.9534 2.0747-10.297z"
     fill-rule="evenodd"
     id="path48"
     style="stroke:#000000;stroke-opacity:1;stroke-width:1.8;stroke-miterlimit:4;stroke-dasharray:none" />
  <path
     d="m113.19 26.167-0.34683-0.3235s1.7254 3.0957 3.5 6.875 3.5957 8.3019 3.8438 10.906l0.47183-0.09375c-0.28014-2.9414-1.6188-7.4056-3.4093-11.219s-4.0594-6.1452-4.0594-6.1452z"
     fill-rule="evenodd"
     id="path50"
     style="stroke:#000000;stroke-opacity:1;stroke-width:1.8;stroke-miterlimit:4;stroke-dasharray:none" />
  <path
     d="m111.65625,27.84375c-.32292.09375.14642-.34067-.1765-.24692 .79535,2.72372.72423,6.0006 1.26353,8.78743 .24008,1.3107.48526,2.63825.41529,3.97672 .03916.14495-.16804.13326.03814.16269 .27818.102.99667-.98105.91498-1.74895-.37757-3.08108-1.13685-6.09849-1.93962-9.09183-.16717-.61436-.33781-1.22781-.51582-1.83913z"
     fill-rule="evenodd"
     id="path52"
     style="stroke:#000000;stroke-opacity:1;stroke-width:1.8;stroke-miterlimit:4;stroke-dasharray:none" />
</svg>
