<?xml version="1.0" encoding="UTF-8"?>
<svg width="421.617" height="569.628" xmlns="http://www.w3.org/2000/svg" xmlns:svg="http://www.w3.org/2000/svg">
 <title>Magnifier</title>
 <metadata id="metadata7">image/svg+xmlMagnifying Glass</metadata>
 <g>
  <title>Layer 1</title>
  <g id="layer1">
   <g id="g2859" transform="matrix(2.72802,-1.57503,1.57503,2.72802,-4092.23,1189.35) ">
    <path id="path2841" fill="#000000" d="m1333.30786,342.36658c-29.26001,0 -53,23.74399 -53,53c0,25.98001 18.72998,47.60602 43.41003,52.125c-0.19006,4.03998 -3.91003,85.12805 -3.91003,85.25006c0,3.65698 6.04004,6.625 13.5,6.625c7.45996,0 13.5,-2.96802 13.5,-6.625l-3.91003,-85.25006c24.68005,-4.51899 43.41003,-26.14499 43.41003,-52.125c0,-29.25602 -23.73999,-53 -53,-53zm0,8c24.83997,0 45,20.16 45,45c0,24.83999 -20.16003,45 -45,45c-24.83997,0 -45,-20.16001 -45,-45c0,-24.84 20.16003,-45 45,-45z"/>
   </g>
  </g>
 </g>
</svg>