<?xml version="1.0" encoding="UTF-8" standalone="no"?>
<!-- Created with Inkscape (http://www.inkscape.org/) -->

<svg
   xmlns:dc="http://purl.org/dc/elements/1.1/"
   xmlns:cc="http://creativecommons.org/ns#"
   xmlns:rdf="http://www.w3.org/1999/02/22-rdf-syntax-ns#"
   xmlns:svg="http://www.w3.org/2000/svg"
   xmlns="http://www.w3.org/2000/svg"
   xmlns:sodipodi="http://sodipodi.sourceforge.net/DTD/sodipodi-0.dtd"
   xmlns:inkscape="http://www.inkscape.org/namespaces/inkscape"
   width="210mm"
   height="297mm"
   viewBox="0 0 210 297"
   version="1.1"
   id="svg8"
   inkscape:version="0.92.2 (5c3e80d, 2017-08-06)"
   sodipodi:docname="arrow.svg"
   inkscape:export-filename="/home/aqeel/Documents/PhD/APES/imgs/envs/arrow3.png"
   inkscape:export-xdpi="96"
   inkscape:export-ydpi="96">
  <defs
     id="defs2" />
  <sodipodi:namedview
     id="base"
     pagecolor="#ffffff"
     bordercolor="#666666"
     borderopacity="1.0"
     inkscape:pageopacity="0.0"
     inkscape:pageshadow="2"
     inkscape:zoom="4"
     inkscape:cx="182.04516"
     inkscape:cy="253.67851"
     inkscape:document-units="mm"
     inkscape:current-layer="layer1"
     showgrid="false"
     inkscape:window-width="1920"
     inkscape:window-height="1051"
     inkscape:window-x="1600"
     inkscape:window-y="0"
     inkscape:window-maximized="1"
     showguides="false">
    <inkscape:grid
       type="xygrid"
       id="grid3701" />
  </sodipodi:namedview>
  <metadata
     id="metadata5">
    <rdf:RDF>
      <cc:Work
         rdf:about="">
        <dc:format>image/svg+xml</dc:format>
        <dc:type
           rdf:resource="http://purl.org/dc/dcmitype/StillImage" />
        <dc:title />
      </cc:Work>
    </rdf:RDF>
  </metadata>
  <g
     inkscape:label="Layer 1"
     inkscape:groupmode="layer"
     id="layer1">
    <path
       style="stroke-width:0.16210042"
       d="M 100.61708,93.510858 V 78.642982 H 58.31789 L 42.33333,78.562903 V 58.288791 42.693322 L 58.317164,43 h 42.298466 l 0.034,-17.310633 0.034,-17.310631 20.81599,26.878822 c 11.44881,14.783348 20.82393,26.893122 20.83361,26.910603 0.01,0.01746 -9.37253,10.422017 -20.84936,23.121181 L 100.617,108.37874 Z"
       id="path3722"
       inkscape:connector-curvature="0"
       sodipodi:nodetypes="ccccccccccscscc"
       inkscape:export-xdpi="96"
       inkscape:export-ydpi="96" />
    <path
       style="fill:none;stroke:#000000;stroke-width:0.25661331px;stroke-linecap:butt;stroke-linejoin:miter;stroke-opacity:1"
       d="M 0.21088415,131.03143 H 13.000654 l 12.789771,25.74339 h -12.78977 z"
       id="path36"
       inkscape:connector-curvature="0"
       sodipodi:nodetypes="ccccc" />
    <path
       style="fill:none;stroke:#000000;stroke-width:0.25664666px;stroke-linecap:butt;stroke-linejoin:miter;stroke-opacity:1"
       d="M 0.20706515,182.7727 H 13.000176 L 25.793288,157.02934 H 13.000177 Z"
       id="path36-6"
       inkscape:connector-curvature="0"
       sodipodi:nodetypes="ccccc" />
    <path
       style="fill:none;stroke:#000000;stroke-width:0.25661331px;stroke-linecap:butt;stroke-linejoin:miter;stroke-opacity:1"
       d="m 25.210884,131.03143 h 12.78977 l 12.789772,25.74339 H 38.000655 Z"
       id="path36-7"
       inkscape:connector-curvature="0"
       sodipodi:nodetypes="ccccc" />
    <path
       style="fill:none;stroke:#000000;stroke-width:0.25664666px;stroke-linecap:butt;stroke-linejoin:miter;stroke-opacity:1"
       d="M 25.207065,182.7727 H 38.000176 L 50.793288,157.02934 H 38.000177 Z"
       id="path36-6-5"
       inkscape:connector-curvature="0"
       sodipodi:nodetypes="ccccc" />
    <path
       style="stroke-width:1.01015258"
       d="M 26.161656,544.0465 C 13.41282,518.13968 2.981954,496.77495 2.981954,496.56933 c 0,-0.20562 10.226847,-0.37386 22.726327,-0.37386 h 22.726328 l 23.742795,47.47717 23.742794,47.47717 H 72.630777 49.341357 Z"
       id="path104"
       inkscape:connector-curvature="0"
       transform="scale(0.26458333)" />
    <path
       style="stroke-width:1.01015258"
       d="m 25.959371,642.16251 23.984772,-47.98224 h 22.913191 22.913191 l -16.448564,33.58757 c -9.04671,18.47316 -19.699379,40.06518 -23.672598,47.98225 l -7.224034,14.39467 H 25.199963 1.974598 Z"
       id="path106"
       inkscape:connector-curvature="0"
       transform="scale(0.26458333)" />
    <path
       style="stroke-width:1.01015258"
       d="m 100.38437,682.82115 c 1.8388,-4.02798 12.49641,-25.61999 23.68358,-47.98224 l 20.34029,-40.65864 h 22.72597 c 12.49928,0 22.72597,0.26271 22.72597,0.58381 0,0.32109 -10.53036,21.91311 -23.4008,47.98224 l -23.40079,47.39844 H 120.04983 97.041082 Z"
       id="path108"
       inkscape:connector-curvature="0"
       transform="scale(0.26458333)" />
    <path
       style="stroke-width:1.01015258"
       d="M 120.48045,543.67264 97.093785,496.19547 h 22.902205 22.90221 l 23.48099,46.97495 c 12.91454,25.83622 23.48099,47.20095 23.48099,47.47717 0,0.27622 -10.34845,0.50222 -22.99654,0.50222 h -22.99653 z"
       id="path110"
       inkscape:connector-curvature="0"
       transform="scale(0.26458333)" />
    <path
       style="fill:none;stroke:#000000;stroke-width:0.18840794px;stroke-linecap:butt;stroke-linejoin:miter;stroke-opacity:1"
       d="m 14.546223,241.39568 h 6.13625 l 14.298855,-10.28097 h -7.417485 z"
       id="path36-6-5-2"
       inkscape:connector-curvature="0"
       sodipodi:nodetypes="ccccc"
       inkscape:export-xdpi="120.89173"
       inkscape:export-ydpi="120.89173" />
    <path
       style="fill:none;stroke:#000000;stroke-width:0.18845856px;stroke-linecap:butt;stroke-linejoin:miter;stroke-opacity:1"
       d="m 14.534648,220.59411 h 6.139581 l 14.306618,10.2809 h -7.421512 z"
       id="path36-6-5-2-2"
       inkscape:connector-curvature="0"
       sodipodi:nodetypes="ccccc"
       inkscape:export-xdpi="120.89173"
       inkscape:export-ydpi="120.89173" />
    <path
       style="fill:#000080;stroke-width:0.0247537"
       d="m 14.935642,241.24185 c 0.0044,-0.006 2.850456,-2.25542 6.324479,-4.99842 l 6.316409,-4.98727 3.489959,0.008 3.489959,0.008 -6.940664,4.99041 -6.940666,4.99043 h -2.873772 c -1.580576,0 -2.870142,-0.005 -2.865704,-0.0112 z"
       id="path151"
       inkscape:connector-curvature="0"
       inkscape:export-xdpi="120.89173"
       inkscape:export-ydpi="120.89173" />
    <path
       style="fill:#000080;stroke-width:0.0247537"
       d="m 21.250192,225.74376 -6.341634,-5.00606 2.868414,-0.008 2.868413,-0.008 6.959372,5.00057 c 3.827654,2.75031 6.963143,5.00671 6.967751,5.01425 0.0046,0.008 -1.564158,0.0136 -3.486151,0.0136 l -3.494533,-1.8e-4 z"
       id="path153"
       inkscape:connector-curvature="0"
       inkscape:export-xdpi="120.89173"
       inkscape:export-ydpi="120.89173" />
  </g>
</svg>
